<?xml version="1.0" standalone="no"?>
<!DOCTYPE svg PUBLIC "-//W3C//DTD SVG 20010904//EN"
 "http://www.w3.org/TR/2001/REC-SVG-20010904/DTD/svg10.dtd">
<svg version="1.0" xmlns="http://www.w3.org/2000/svg"
 width="714.000000pt" height="714.000000pt" viewBox="0 0 714.000000 714.000000"
 preserveAspectRatio="xMidYMid meet">
<metadata>
Created by potrace 1.11, written by Peter Selinger 2001-2013
</metadata>
<g transform="translate(0.000000,714.000000) scale(0.100000,-0.100000)"
fill="#000000" stroke="none">
<path d="M935 7130 c-212 -23 -387 -110 -536 -267 -119 -125 -193 -265 -223
-422 -14 -75 -16 -366 -16 -2798 0 -2994 -5 -2774 62 -2946 79 -205 260 -388
470 -475 160 -67 -55 -62 2958 -62 2446 0 2739 2 2807 16 93 19 136 35 232 88
210 117 361 311 423 546 l23 85 0 2750 c0 2592 -1 2754 -18 2819 -42 166 -106
284 -216 399 -121 127 -251 203 -423 249 l-83 23 -2695 1 c-1482 1 -2726 -2
-2765 -6z m5510 -115 c39 -8 115 -37 173 -65 230 -114 384 -336 413 -599 6
-53 8 -1102 7 -2766 l-3 -2680 -22 -78 c-27 -93 -88 -215 -142 -279 -122 -149
-312 -253 -504 -278 -95 -12 -5337 -13 -5432 0 -97 12 -218 52 -295 97 -83 49
-217 181 -262 258 -46 81 -84 176 -97 249 -8 42 -11 870 -11 2781 0 2688 0
2723 20 2801 39 153 146 322 262 415 69 55 216 126 298 143 99 22 5492 23
5595 1z"/>
<path d="M2315 5819 c-294 -26 -508 -102 -630 -224 -72 -71 -106 -138 -112
-220 -4 -51 0 -70 26 -127 39 -85 75 -223 98 -375 17 -108 18 -214 18 -1278
l0 -1160 -27 -301 c-32 -341 -34 -401 -14 -447 32 -78 81 -95 334 -122 415
-44 929 -38 1372 15 133 17 216 66 235 141 3 13 -3 103 -15 199 -43 361 -75
786 -57 769 28 -25 258 -585 348 -848 50 -146 56 -157 111 -216 63 -68 139
-113 233 -141 114 -33 506 -7 795 52 487 99 739 285 699 513 -37 207 -427 776
-915 1334 -77 88 -149 171 -162 186 l-22 28 152 130 c172 147 429 405 531 533
314 392 423 736 326 1027 -43 131 -178 291 -312 371 -225 135 -526 194 -825
161 -371 -40 -678 -170 -743 -314 -20 -43 -24 -81 -11 -87 5 -1 25 -25 45 -51
57 -75 78 -157 84 -327 5 -135 4 -152 -21 -242 -37 -134 -118 -332 -214 -523
-45 -88 -86 -167 -92 -175 -8 -11 -10 97 -6 400 5 497 22 656 91 893 l25 89
-22 19 c-128 108 -378 216 -637 274 -221 50 -446 64 -686 44z m531 -122 c127
-24 241 -53 344 -87 103 -34 310 -131 330 -154 9 -11 6 -40 -15 -130 -60 -271
-75 -490 -75 -1126 1 -549 -13 -512 116 -308 149 235 290 528 374 778 58 172
73 256 65 365 -14 185 -41 290 -96 373 -16 24 -29 49 -29 56 0 8 16 28 35 45
79 69 264 140 475 183 154 30 431 33 560 4 249 -54 440 -168 543 -324 69 -102
91 -176 91 -302 0 -130 -23 -220 -98 -375 -144 -300 -426 -623 -846 -967 -74
-61 -135 -117 -135 -124 0 -7 48 -65 106 -131 534 -594 980 -1217 1029 -1435
12 -54 12 -60 -12 -105 -90 -176 -474 -311 -997 -352 -282 -23 -384 -9 -483
63 -71 53 -93 89 -151 256 -119 336 -231 609 -348 845 -103 206 -96 198 -155
189 l-47 -7 7 -206 c10 -299 23 -486 52 -745 26 -228 26 -228 6 -248 -48 -49
-305 -78 -752 -85 -346 -6 -576 4 -810 33 -141 18 -157 24 -166 61 -4 14 5
170 20 347 15 177 31 416 36 531 12 272 12 1756 0 1990 -15 296 -52 503 -120
665 -24 57 -30 83 -25 110 17 89 88 166 210 225 107 52 243 85 455 109 80 9
428 -3 506 -17z"/>
</g>
</svg>
