<svg xmlns="http://www.w3.org/2000/svg" width="46.01" height="21.76" viewBox="0 0 46.01 21.76">
  <defs>
    <style>
      .a {
        fill: #fff;
      }
    </style>
  </defs>
  <path class="a" d="M23,21.76a10.77,10.77,0,0,1-6.79-2.54C14.71,17.68,3.78,5.62,2.84,4.63A5.29,5.29,0,0,0,0,2.86C0,1.6,2.24,0,5.25,0c2.58,0,6.19,1.21,7.91,3.14,1,1.1,6.19,6.83,9.89,10.8l9.8-10.8C34.57,1.21,38.18,0,40.76,0,43.77,0,46,1.6,46,2.86a5.29,5.29,0,0,0-2.84,1.77c-.94,1-11.87,13.05-13.33,14.59s-4.21,2.43-6.79,2.54Z"/>
</svg>
