<svg xmlns="http://www.w3.org/2000/svg" width="17.28" height="17.28" viewBox="0 0 17.28 17.28">
  <defs>
    <style>
      .a {
        fill: #785da5;
      }
    </style>
  </defs>
  <path class="a" d="M8.64,0A8.64,8.64,0,0,0,0,8.64a8.06,8.06,0,0,0,1,4L.1,15a1.74,1.74,0,0,0,1,2.22,1.83,1.83,0,0,0,1.18,0l2.36-.87a8.06,8.06,0,0,0,4,1,8.54,8.54,0,0,0,4.82-1.48l-1.07-1.36a6.85,6.85,0,0,1-3.75,1.11A6,6,0,0,1,4.9,14.4L1.73,15.55l1.15-3.17A6.09,6.09,0,0,1,1.73,8.64a6.92,6.92,0,0,1,13.83,0V9.79a1.44,1.44,0,0,1-2.88,0V8.64a4,4,0,1,0-1.22,2.88,3.17,3.17,0,0,0,5.82-1.73V8.35h0A8.64,8.64,0,0,0,8.64,0Zm0,10.94A2.3,2.3,0,1,1,11,8.64,2.3,2.3,0,0,1,8.64,10.94Z"/>
</svg>
