<svg xmlns="http://www.w3.org/2000/svg" width="16.81" height="16.81" viewBox="0 0 16.81 16.81">
  <defs>
    <style>
      .a {
        fill: #785da5;
        stroke: #785da5;
        stroke-miterlimit: 10;
        stroke-width: 0.25px;
      }
    </style>
  </defs>
  <g>
    <path class="a" d="M13.93.12h-11A2.77,2.77,0,0,0,.12,2.89v11a2.77,2.77,0,0,0,2.77,2.76h11a2.77,2.77,0,0,0,2.76-2.76v-11A2.77,2.77,0,0,0,13.93.12Zm1.38,13.81a1.38,1.38,0,0,1-1.38,1.38h-11a1.38,1.38,0,0,1-1.38-1.38v-11A1.37,1.37,0,0,1,2.89,1.51h11a1.38,1.38,0,0,1,1.38,1.38Z"/>
    <path class="a" d="M8.41,4.27a4.14,4.14,0,1,0,4.14,4.14A4.14,4.14,0,0,0,8.41,4.27Zm0,6.9a2.76,2.76,0,1,1,2.76-2.76A2.76,2.76,0,0,1,8.41,11.17Z"/>
    <circle class="a" cx="12.89" cy="3.92" r="1.04"/>
  </g>
</svg>
