<svg xmlns="http://www.w3.org/2000/svg" width="18" height="18.01" viewBox="0 0 18 18.01">
  <defs>
    <style>
      .a {
        fill: #785da5;
        fill-rule: evenodd;
      }
    </style>
  </defs>
  <path class="a" d="M9,0a9,9,0,1,0,9,9A9,9,0,0,0,9,0Zm7.11,11.82H13.69a11.82,11.82,0,0,0,.22-2.14h2.66A7.6,7.6,0,0,1,16.07,11.82Zm.5-3.49h-2.7a12.22,12.22,0,0,0-.33-2.08h2.55A7.17,7.17,0,0,1,16.57,8.33ZM15.42,4.89H13.13A8.07,8.07,0,0,0,11,1.58,7.69,7.69,0,0,1,15.42,4.89ZM9.67,2.1a4.77,4.77,0,0,1,2.07,2.79H9.67Zm0,4.15h2.46a13.18,13.18,0,0,1,.3,2.08H9.67Zm2.8,3.43a13.73,13.73,0,0,1-.21,2.14H9.67V9.68Zm-11.15,0H4a11.82,11.82,0,0,0,.22,2.14H1.83A7.61,7.61,0,0,1,1.32,9.68Zm4.17,0H8.28v2.14H5.69A12.66,12.66,0,0,1,5.49,9.68Zm0-1.35a14.48,14.48,0,0,1,.29-2.08H8.28V8.33ZM8.28,2.06V4.89H6.18A4.6,4.6,0,0,1,8.28,2.06ZM6.9,1.59a8.2,8.2,0,0,0-2.16,3.3H2.48A7.71,7.71,0,0,1,6.9,1.59ZM1.8,6.25H4.33A12.22,12.22,0,0,0,4,8.33H1.32A7.89,7.89,0,0,1,1.8,6.25Zm.72,6.92h2a7.2,7.2,0,0,0,2,3.13A7.7,7.7,0,0,1,2.52,13.17Zm3.51,0H8.28V16A4,4,0,0,1,6,13.17ZM9.67,16V13.17H11.9A4.2,4.2,0,0,1,9.67,16Zm1.65.37a7.24,7.24,0,0,0,2-3.15h2.05A7.73,7.73,0,0,1,11.32,16.32Z"/>
</svg>
